<svg xmlns="http://www.w3.org/2000/svg" viewBox="0 0 800 1000">
<rect width="800" height="1000" fill="#EFE9DF"/>
<rect x="0" y="0" width="800" height="10" fill="#FF5A1F"/>
<text x="40" y="70" font-family="Arial, sans-serif" font-size="30" letter-spacing="6" fill="#B9B2A6">IXPEAKS</text>
<g transform="translate(0 40)" opacity=".25">
  <path d="M0 760 Q200 560 400 700 T800 620" stroke="#B9B2A6" stroke-width="2" fill="none"/>
  <path d="M0 800 Q200 600 400 740 T800 660" stroke="#B9B2A6" stroke-width="2" fill="none"/>
</g>
<path d="M340 320 Q330 300 350 295 Q370 290 375 315 L375 260 Q375 240 395 240 Q415 240 415 260 L415 235 Q415 220 435 222 Q455 224 455 250 L455 470 Q450 560 400 570 Q350 570 340 480 Z" fill="#23282C"/>
        <rect x="345" y="330" width="34" height="14" rx="6" fill="#FF5A1F"/>
<text x="40" y="952" font-family="Arial, sans-serif" font-size="26" letter-spacing="4" fill="#B9B2A6">LAUNCH CONCEPT — NOT FINAL PRODUCTION</text>
</svg>